999
"DXF R12 Output" (www.mydxf.blogspot.com)
 0 
SECTION
 2 
HEADER
 9 
$ACADVER
 1 
AC1009
 9 
$EXTMIN
 10 
 0 
 20 
 0 
 9 
$EXTMAX
 10 
 8.5 
 20 
 11 
 0 
ENDSEC
 0 
SECTION
 2 
ENTITIES
0
POLYLINE
8
Layer 1
62
7
70
0
10
0.000000
20
0.000000
66
1
0
VERTEX
8
Layer 1
10
0.000000
20
297.000000
70
0
0
VERTEX
8
Layer 1
10
0.000000
20
217.000232
70
0
0
VERTEX
8
Layer 1
10
25.000024
20
217.000232
70
0
0
VERTEX
8
Layer 1
10
25.000024
20
146.999850
70
0
0
VERTEX
8
Layer 1
10
0.000000
20
146.999850
70
0
0
VERTEX
8
Layer 1
10
0.000000
20
117.000130
70
0
0
VERTEX
8
Layer 1
10
179.999870
20
117.000130
70
0
0
VERTEX
8
Layer 1
10
179.999870
20
146.999850
70
0
0
VERTEX
8
Layer 1
10
154.999840
20
146.999850
70
0
0
VERTEX
8
Layer 1
10
154.999840
20
217.000232
70
0
0
VERTEX
8
Layer 1
10
179.999870
20
217.000232
70
0
0
VERTEX
8
Layer 1
10
179.999870
20
297.000000
70
0
0
VERTEX
8
Layer 1
10
0.000000
20
297.000000
70
0
0
VERTEX
8
Layer 1
10
0.000000
20
297.000000
70
0
0
SEQEND
8
Layer 1
0
POLYLINE
8
Layer 1
62
7
70
0
10
0.000000
20
0.000000
66
1
0
VERTEX
8
Layer 1
10
11.750187
20
287.000094
70
0
0
VERTEX
8
Layer 1
10
12.419875
20
286.866788
70
0
0
VERTEX
8
Layer 1
10
12.987571
20
286.487348
70
0
0
VERTEX
8
Layer 1
10
13.366843
20
285.919541
70
0
0
VERTEX
8
Layer 1
10
13.499951
20
285.249813
70
0
0
VERTEX
8
Layer 1
10
13.362383
20
284.568767
70
0
0
VERTEX
8
Layer 1
10
12.987388
20
284.012612
70
0
0
VERTEX
8
Layer 1
10
12.431233
20
283.637617
70
0
0
VERTEX
8
Layer 1
10
11.750187
20
283.500049
70
0
0
VERTEX
8
Layer 1
10
11.080459
20
283.633157
70
0
0
VERTEX
8
Layer 1
10
10.512652
20
284.012429
70
0
0
VERTEX
8
Layer 1
10
10.133212
20
284.580125
70
0
0
VERTEX
8
Layer 1
10
9.999906
20
285.249813
70
0
0
VERTEX
8
Layer 1
10
10.133064
20
285.919660
70
0
0
VERTEX
8
Layer 1
10
10.512470
20
286.487530
70
0
0
VERTEX
8
Layer 1
10
11.080340
20
286.866936
70
0
0
VERTEX
8
Layer 1
10
11.750187
20
287.000094
70
0
0
VERTEX
8
Layer 1
10
11.750187
20
287.000094
70
0
0
SEQEND
8
Layer 1
0
POLYLINE
8
Layer 1
62
7
70
0
10
0.000000
20
0.000000
66
1
0
VERTEX
8
Layer 1
10
168.250200
20
287.000094
70
0
0
VERTEX
8
Layer 1
10
168.919887
20
286.866787
70
0
0
VERTEX
8
Layer 1
10
169.487581
20
286.487346
70
0
0
VERTEX
8
Layer 1
10
169.866853
20
285.919540
70
0
0
VERTEX
8
Layer 1
10
169.999960
20
285.249813
70
0
0
VERTEX
8
Layer 1
10
169.862393
20
284.568768
70
0
0
VERTEX
8
Layer 1
10
169.487398
20
284.012614
70
0
0
VERTEX
8
Layer 1
10
168.931245
20
283.637618
70
0
0
VERTEX
8
Layer 1
10
168.250200
20
283.500049
70
0
0
VERTEX
8
Layer 1
10
167.580469
20
283.633154
70
0
0
VERTEX
8
Layer 1
10
167.012659
20
284.012426
70
0
0
VERTEX
8
Layer 1
10
166.633216
20
284.580122
70
0
0
VERTEX
8
Layer 1
10
166.499910
20
285.249813
70
0
0
VERTEX
8
Layer 1
10
166.633068
20
285.919662
70
0
0
VERTEX
8
Layer 1
10
167.012476
20
286.487534
70
0
0
VERTEX
8
Layer 1
10
167.580350
20
286.866939
70
0
0
VERTEX
8
Layer 1
10
168.250200
20
287.000094
70
0
0
VERTEX
8
Layer 1
10
168.250200
20
287.000094
70
0
0
SEQEND
8
Layer 1
0
POLYLINE
8
Layer 1
62
7
70
0
10
0.000000
20
0.000000
66
1
0
VERTEX
8
Layer 1
10
43.500187
20
281.999882
70
0
0
VERTEX
8
Layer 1
10
44.181233
20
281.862314
70
0
0
VERTEX
8
Layer 1
10
44.737388
20
281.487319
70
0
0
VERTEX
8
Layer 1
10
45.112383
20
280.931164
70
0
0
VERTEX
8
Layer 1
10
45.249951
20
280.250118
70
0
0
VERTEX
8
Layer 1
10
45.116843
20
279.580390
70
0
0
VERTEX
8
Layer 1
10
44.737571
20
279.012583
70
0
0
VERTEX
8
Layer 1
10
44.169875
20
278.633142
70
0
0
VERTEX
8
Layer 1
10
43.500187
20
278.499837
70
0
0
VERTEX
8
Layer 1
10
42.830340
20
278.632994
70
0
0
VERTEX
8
Layer 1
10
42.262469
20
279.012400
70
0
0
VERTEX
8
Layer 1
10
41.883063
20
279.580271
70
0
0
VERTEX
8
Layer 1
10
41.749906
20
280.250118
70
0
0
VERTEX
8
Layer 1
10
41.883211
20
280.919806
70
0
0
VERTEX
8
Layer 1
10
42.262652
20
281.487502
70
0
0
VERTEX
8
Layer 1
10
42.830459
20
281.866774
70
0
0
VERTEX
8
Layer 1
10
43.500187
20
281.999882
70
0
0
VERTEX
8
Layer 1
10
43.500187
20
281.999882
70
0
0
SEQEND
8
Layer 1
0
POLYLINE
8
Layer 1
62
7
70
0
10
0.000000
20
0.000000
66
1
0
VERTEX
8
Layer 1
10
135.500260
20
281.999882
70
0
0
VERTEX
8
Layer 1
10
136.181305
20
281.862313
70
0
0
VERTEX
8
Layer 1
10
136.737458
20
281.487317
70
0
0
VERTEX
8
Layer 1
10
137.112453
20
280.931163
70
0
0
VERTEX
8
Layer 1
10
137.250020
20
280.250118
70
0
0
VERTEX
8
Layer 1
10
137.116913
20
279.580391
70
0
0
VERTEX
8
Layer 1
10
136.737641
20
279.012584
70
0
0
VERTEX
8
Layer 1
10
136.169947
20
278.633144
70
0
0
VERTEX
8
Layer 1
10
135.500260
20
278.499837
70
0
0
VERTEX
8
Layer 1
10
134.830413
20
278.632994
70
0
0
VERTEX
8
Layer 1
10
134.262543
20
279.012400
70
0
0
VERTEX
8
Layer 1
10
133.883137
20
279.580271
70
0
0
VERTEX
8
Layer 1
10
133.749980
20
280.250118
70
0
0
VERTEX
8
Layer 1
10
133.883285
20
280.919806
70
0
0
VERTEX
8
Layer 1
10
134.262726
20
281.487501
70
0
0
VERTEX
8
Layer 1
10
134.830533
20
281.866774
70
0
0
VERTEX
8
Layer 1
10
135.500260
20
281.999882
70
0
0
VERTEX
8
Layer 1
10
135.500260
20
281.999882
70
0
0
SEQEND
8
Layer 1
0
POLYLINE
8
Layer 1
62
7
70
0
10
0.000000
20
0.000000
66
1
0
VERTEX
8
Layer 1
10
11.750187
20
277.000187
70
0
0
VERTEX
8
Layer 1
10
12.419875
20
276.866882
70
0
0
VERTEX
8
Layer 1
10
12.987571
20
276.487441
70
0
0
VERTEX
8
Layer 1
10
13.366843
20
275.919634
70
0
0
VERTEX
8
Layer 1
10
13.499951
20
275.249906
70
0
0
VERTEX
8
Layer 1
10
13.362383
20
274.568860
70
0
0
VERTEX
8
Layer 1
10
12.987388
20
274.012705
70
0
0
VERTEX
8
Layer 1
10
12.431233
20
273.637710
70
0
0
VERTEX
8
Layer 1
10
11.750187
20
273.500142
70
0
0
VERTEX
8
Layer 1
10
11.080459
20
273.633250
70
0
0
VERTEX
8
Layer 1
10
10.512652
20
274.012522
70
0
0
VERTEX
8
Layer 1
10
10.133212
20
274.580218
70
0
0
VERTEX
8
Layer 1
10
9.999906
20
275.249906
70
0
0
VERTEX
8
Layer 1
10
10.133063
20
275.919753
70
0
0
VERTEX
8
Layer 1
10
10.512469
20
276.487624
70
0
0
VERTEX
8
Layer 1
10
11.080340
20
276.867030
70
0
0
VERTEX
8
Layer 1
10
11.750187
20
277.000187
70
0
0
VERTEX
8
Layer 1
10
11.750187
20
277.000187
70
0
0
SEQEND
8
Layer 1
0
POLYLINE
8
Layer 1
62
7
70
0
10
0.000000
20
0.000000
66
1
0
VERTEX
8
Layer 1
10
168.250200
20
277.000187
70
0
0
VERTEX
8
Layer 1
10
168.919887
20
276.866880
70
0
0
VERTEX
8
Layer 1
10
169.487581
20
276.487440
70
0
0
VERTEX
8
Layer 1
10
169.866853
20
275.919633
70
0
0
VERTEX
8
Layer 1
10
169.999960
20
275.249906
70
0
0
VERTEX
8
Layer 1
10
169.862393
20
274.568861
70
0
0
VERTEX
8
Layer 1
10
169.487398
20
274.012707
70
0
0
VERTEX
8
Layer 1
10
168.931245
20
273.637711
70
0
0
VERTEX
8
Layer 1
10
168.250200
20
273.500142
70
0
0
VERTEX
8
Layer 1
10
167.580469
20
273.633247
70
0
0
VERTEX
8
Layer 1
10
167.012659
20
274.012519
70
0
0
VERTEX
8
Layer 1
10
166.633216
20
274.580215
70
0
0
VERTEX
8
Layer 1
10
166.499910
20
275.249906
70
0
0
VERTEX
8
Layer 1
10
166.633068
20
275.919755
70
0
0
VERTEX
8
Layer 1
10
167.012476
20
276.487627
70
0
0
VERTEX
8
Layer 1
10
167.580350
20
276.867033
70
0
0
VERTEX
8
Layer 1
10
168.250200
20
277.000187
70
0
0
VERTEX
8
Layer 1
10
168.250200
20
277.000187
70
0
0
SEQEND
8
Layer 1
0
POLYLINE
8
Layer 1
62
7
70
0
10
0.000000
20
0.000000
66
1
0
VERTEX
8
Layer 1
10
78.500118
20
263.999947
70
0
0
VERTEX
8
Layer 1
10
79.456884
20
263.809666
70
0
0
VERTEX
8
Layer 1
10
80.267991
20
263.267714
70
0
0
VERTEX
8
Layer 1
10
80.809943
20
262.456607
70
0
0
VERTEX
8
Layer 1
10
81.000224
20
261.499841
70
0
0
VERTEX
8
Layer 1
10
80.803633
20
260.526834
70
0
0
VERTEX
8
Layer 1
10
80.267808
20
259.732302
70
0
0
VERTEX
8
Layer 1
10
79.473165
20
259.196642
70
0
0
VERTEX
8
Layer 1
10
78.500118
20
259.000252
70
0
0
VERTEX
8
Layer 1
10
77.527071
20
259.196642
70
0
0
VERTEX
8
Layer 1
10
76.732428
20
259.732302
70
0
0
VERTEX
8
Layer 1
10
76.196603
20
260.526834
70
0
0
VERTEX
8
Layer 1
10
76.000012
20
261.499841
70
0
0
VERTEX
8
Layer 1
10
76.190293
20
262.456607
70
0
0
VERTEX
8
Layer 1
10
76.732245
20
263.267714
70
0
0
VERTEX
8
Layer 1
10
77.543352
20
263.809666
70
0
0
VERTEX
8
Layer 1
10
78.500118
20
263.999947
70
0
0
VERTEX
8
Layer 1
10
78.500118
20
263.999947
70
0
0
SEQEND
8
Layer 1
0
POLYLINE
8
Layer 1
62
7
70
0
10
0.000000
20
0.000000
66
1
0
VERTEX
8
Layer 1
10
101.499750
20
263.999947
70
0
0
VERTEX
8
Layer 1
10
102.456514
20
263.809664
70
0
0
VERTEX
8
Layer 1
10
103.267619
20
263.267712
70
0
0
VERTEX
8
Layer 1
10
103.809570
20
262.456605
70
0
0
VERTEX
8
Layer 1
10
103.999850
20
261.499841
70
0
0
VERTEX
8
Layer 1
10
103.803259
20
260.526836
70
0
0
VERTEX
8
Layer 1
10
103.267436
20
259.732304
70
0
0
VERTEX
8
Layer 1
10
102.472795
20
259.196644
70
0
0
VERTEX
8
Layer 1
10
101.499750
20
259.000252
70
0
0
VERTEX
8
Layer 1
10
100.526868
20
259.196790
70
0
0
VERTEX
8
Layer 1
10
99.732393
20
259.732484
70
0
0
VERTEX
8
Layer 1
10
99.196698
20
260.526959
70
0
0
VERTEX
8
Layer 1
10
99.000159
20
261.499841
70
0
0
VERTEX
8
Layer 1
10
99.196549
20
262.472889
70
0
0
VERTEX
8
Layer 1
10
99.732210
20
263.267532
70
0
0
VERTEX
8
Layer 1
10
100.526743
20
263.803356
70
0
0
VERTEX
8
Layer 1
10
101.499750
20
263.999947
70
0
0
VERTEX
8
Layer 1
10
101.499750
20
263.999947
70
0
0
SEQEND
8
Layer 1
0
POLYLINE
8
Layer 1
62
7
70
0
10
0.000000
20
0.000000
66
1
0
VERTEX
8
Layer 1
10
78.500118
20
235.000167
70
0
0
VERTEX
8
Layer 1
10
79.456884
20
234.809886
70
0
0
VERTEX
8
Layer 1
10
80.267991
20
234.267934
70
0
0
VERTEX
8
Layer 1
10
80.809943
20
233.456827
70
0
0
VERTEX
8
Layer 1
10
81.000224
20
232.500061
70
0
0
VERTEX
8
Layer 1
10
80.809943
20
231.543295
70
0
0
VERTEX
8
Layer 1
10
80.267991
20
230.732188
70
0
0
VERTEX
8
Layer 1
10
79.456884
20
230.190236
70
0
0
VERTEX
8
Layer 1
10
78.500118
20
229.999955
70
0
0
VERTEX
8
Layer 1
10
77.543352
20
230.190236
70
0
0
VERTEX
8
Layer 1
10
76.732245
20
230.732188
70
0
0
VERTEX
8
Layer 1
10
76.190293
20
231.543295
70
0
0
VERTEX
8
Layer 1
10
76.000012
20
232.500061
70
0
0
VERTEX
8
Layer 1
10
76.190293
20
233.456827
70
0
0
VERTEX
8
Layer 1
10
76.732245
20
234.267934
70
0
0
VERTEX
8
Layer 1
10
77.543352
20
234.809886
70
0
0
VERTEX
8
Layer 1
10
78.500118
20
235.000167
70
0
0
VERTEX
8
Layer 1
10
78.500118
20
235.000167
70
0
0
SEQEND
8
Layer 1
0
POLYLINE
8
Layer 1
62
7
70
0
10
0.000000
20
0.000000
66
1
0
VERTEX
8
Layer 1
10
101.499750
20
235.000167
70
0
0
VERTEX
8
Layer 1
10
102.456514
20
234.809884
70
0
0
VERTEX
8
Layer 1
10
103.267619
20
234.267932
70
0
0
VERTEX
8
Layer 1
10
103.809570
20
233.456825
70
0
0
VERTEX
8
Layer 1
10
103.999850
20
232.500061
70
0
0
VERTEX
8
Layer 1
10
103.809570
20
231.543297
70
0
0
VERTEX
8
Layer 1
10
103.267619
20
230.732190
70
0
0
VERTEX
8
Layer 1
10
102.456514
20
230.190238
70
0
0
VERTEX
8
Layer 1
10
101.499750
20
229.999955
70
0
0
VERTEX
8
Layer 1
10
100.526743
20
230.196546
70
0
0
VERTEX
8
Layer 1
10
99.732210
20
230.732370
70
0
0
VERTEX
8
Layer 1
10
99.196549
20
231.527013
70
0
0
VERTEX
8
Layer 1
10
99.000159
20
232.500061
70
0
0
VERTEX
8
Layer 1
10
99.196549
20
233.473109
70
0
0
VERTEX
8
Layer 1
10
99.732210
20
234.267752
70
0
0
VERTEX
8
Layer 1
10
100.526743
20
234.803576
70
0
0
VERTEX
8
Layer 1
10
101.499750
20
235.000167
70
0
0
VERTEX
8
Layer 1
10
101.499750
20
235.000167
70
0
0
SEQEND
8
Layer 1
0
POLYLINE
8
Layer 1
62
7
70
0
10
0.000000
20
0.000000
66
1
0
VERTEX
8
Layer 1
10
65.000167
20
222.723914
70
0
0
VERTEX
8
Layer 1
10
65.973174
20
222.527323
70
0
0
VERTEX
8
Layer 1
10
66.767706
20
221.991498
70
0
0
VERTEX
8
Layer 1
10
67.303366
20
221.196855
70
0
0
VERTEX
8
Layer 1
10
67.499756
20
220.223808
70
0
0
VERTEX
8
Layer 1
10
67.303366
20
219.250761
70
0
0
VERTEX
8
Layer 1
10
66.767706
20
218.456118
70
0
0
VERTEX
8
Layer 1
10
65.973174
20
217.920293
70
0
0
VERTEX
8
Layer 1
10
65.000167
20
217.723702
70
0
0
VERTEX
8
Layer 1
10
64.043401
20
217.913983
70
0
0
VERTEX
8
Layer 1
10
63.232294
20
218.455935
70
0
0
VERTEX
8
Layer 1
10
62.690342
20
219.267042
70
0
0
VERTEX
8
Layer 1
10
62.500061
20
220.223808
70
0
0
VERTEX
8
Layer 1
10
62.690342
20
221.180574
70
0
0
VERTEX
8
Layer 1
10
63.232294
20
221.991681
70
0
0
VERTEX
8
Layer 1
10
64.043401
20
222.533633
70
0
0
VERTEX
8
Layer 1
10
65.000167
20
222.723914
70
0
0
VERTEX
8
Layer 1
10
65.000167
20
222.723914
70
0
0
SEQEND
8
Layer 1
0
POLYLINE
8
Layer 1
62
7
70
0
10
0.000000
20
0.000000
66
1
0
VERTEX
8
Layer 1
10
115.000220
20
222.723914
70
0
0
VERTEX
8
Layer 1
10
115.973224
20
222.527320
70
0
0
VERTEX
8
Layer 1
10
116.767753
20
221.991495
70
0
0
VERTEX
8
Layer 1
10
117.303411
20
221.196853
70
0
0
VERTEX
8
Layer 1
10
117.499800
20
220.223808
70
0
0
VERTEX
8
Layer 1
10
117.303411
20
219.250763
70
0
0
VERTEX
8
Layer 1
10
116.767753
20
218.456121
70
0
0
VERTEX
8
Layer 1
10
115.973224
20
217.920296
70
0
0
VERTEX
8
Layer 1
10
115.000220
20
217.723702
70
0
0
VERTEX
8
Layer 1
10
114.043453
20
217.913982
70
0
0
VERTEX
8
Layer 1
10
113.232344
20
218.455934
70
0
0
VERTEX
8
Layer 1
10
112.690391
20
219.267041
70
0
0
VERTEX
8
Layer 1
10
112.500110
20
220.223808
70
0
0
VERTEX
8
Layer 1
10
112.690391
20
221.180575
70
0
0
VERTEX
8
Layer 1
10
113.232344
20
221.991682
70
0
0
VERTEX
8
Layer 1
10
114.043453
20
222.533634
70
0
0
VERTEX
8
Layer 1
10
115.000220
20
222.723914
70
0
0
VERTEX
8
Layer 1
10
115.000220
20
222.723914
70
0
0
SEQEND
8
Layer 1
0
POLYLINE
8
Layer 1
62
7
70
0
10
0.000000
20
0.000000
66
1
0
VERTEX
8
Layer 1
10
31.000175
20
191.750090
70
0
0
VERTEX
8
Layer 1
10
31.669863
20
191.616785
70
0
0
VERTEX
8
Layer 1
10
32.237558
20
191.237344
70
0
0
VERTEX
8
Layer 1
10
32.616831
20
190.669537
70
0
0
VERTEX
8
Layer 1
10
32.749939
20
189.999810
70
0
0
VERTEX
8
Layer 1
10
32.612370
20
189.318765
70
0
0
VERTEX
8
Layer 1
10
32.237374
20
188.762612
70
0
0
VERTEX
8
Layer 1
10
31.681220
20
188.387617
70
0
0
VERTEX
8
Layer 1
10
31.000175
20
188.250050
70
0
0
VERTEX
8
Layer 1
10
30.330448
20
188.383157
70
0
0
VERTEX
8
Layer 1
10
29.762641
20
188.762429
70
0
0
VERTEX
8
Layer 1
10
29.383201
20
189.330123
70
0
0
VERTEX
8
Layer 1
10
29.249894
20
189.999810
70
0
0
VERTEX
8
Layer 1
10
29.383051
20
190.669657
70
0
0
VERTEX
8
Layer 1
10
29.762457
20
191.237527
70
0
0
VERTEX
8
Layer 1
10
30.330328
20
191.616933
70
0
0
VERTEX
8
Layer 1
10
31.000175
20
191.750090
70
0
0
VERTEX
8
Layer 1
10
31.000175
20
191.750090
70
0
0
SEQEND
8
Layer 1
0
POLYLINE
8
Layer 1
62
7
70
0
10
0.000000
20
0.000000
66
1
0
VERTEX
8
Layer 1
10
47.000232
20
191.750090
70
0
0
VERTEX
8
Layer 1
10
47.669920
20
191.616785
70
0
0
VERTEX
8
Layer 1
10
48.237615
20
191.237344
70
0
0
VERTEX
8
Layer 1
10
48.616888
20
190.669537
70
0
0
VERTEX
8
Layer 1
10
48.749996
20
189.999810
70
0
0
VERTEX
8
Layer 1
10
48.612427
20
189.318765
70
0
0
VERTEX
8
Layer 1
10
48.237431
20
188.762612
70
0
0
VERTEX
8
Layer 1
10
47.681277
20
188.387617
70
0
0
VERTEX
8
Layer 1
10
47.000232
20
188.250050
70
0
0
VERTEX
8
Layer 1
10
46.330505
20
188.383157
70
0
0
VERTEX
8
Layer 1
10
45.762698
20
188.762429
70
0
0
VERTEX
8
Layer 1
10
45.383258
20
189.330123
70
0
0
VERTEX
8
Layer 1
10
45.249951
20
189.999810
70
0
0
VERTEX
8
Layer 1
10
45.383108
20
190.669657
70
0
0
VERTEX
8
Layer 1
10
45.762514
20
191.237527
70
0
0
VERTEX
8
Layer 1
10
46.330385
20
191.616933
70
0
0
VERTEX
8
Layer 1
10
47.000232
20
191.750090
70
0
0
VERTEX
8
Layer 1
10
47.000232
20
191.750090
70
0
0
SEQEND
8
Layer 1
0
POLYLINE
8
Layer 1
62
7
70
0
10
0.000000
20
0.000000
66
1
0
VERTEX
8
Layer 1
10
133.000150
20
191.750090
70
0
0
VERTEX
8
Layer 1
10
133.669837
20
191.616784
70
0
0
VERTEX
8
Layer 1
10
134.237531
20
191.237343
70
0
0
VERTEX
8
Layer 1
10
134.616803
20
190.669537
70
0
0
VERTEX
8
Layer 1
10
134.749910
20
189.999810
70
0
0
VERTEX
8
Layer 1
10
134.612342
20
189.318766
70
0
0
VERTEX
8
Layer 1
10
134.237347
20
188.762613
70
0
0
VERTEX
8
Layer 1
10
133.681194
20
188.387618
70
0
0
VERTEX
8
Layer 1
10
133.000150
20
188.250050
70
0
0
VERTEX
8
Layer 1
10
132.330423
20
188.383157
70
0
0
VERTEX
8
Layer 1
10
131.762617
20
188.762429
70
0
0
VERTEX
8
Layer 1
10
131.383176
20
189.330123
70
0
0
VERTEX
8
Layer 1
10
131.249870
20
189.999810
70
0
0
VERTEX
8
Layer 1
10
131.383027
20
190.669657
70
0
0
VERTEX
8
Layer 1
10
131.762433
20
191.237527
70
0
0
VERTEX
8
Layer 1
10
132.330303
20
191.616933
70
0
0
VERTEX
8
Layer 1
10
133.000150
20
191.750090
70
0
0
VERTEX
8
Layer 1
10
133.000150
20
191.750090
70
0
0
SEQEND
8
Layer 1
0
POLYLINE
8
Layer 1
62
7
70
0
10
0.000000
20
0.000000
66
1
0
VERTEX
8
Layer 1
10
149.000210
20
191.750090
70
0
0
VERTEX
8
Layer 1
10
149.669897
20
191.616784
70
0
0
VERTEX
8
Layer 1
10
150.237591
20
191.237343
70
0
0
VERTEX
8
Layer 1
10
150.616863
20
190.669537
70
0
0
VERTEX
8
Layer 1
10
150.749970
20
189.999810
70
0
0
VERTEX
8
Layer 1
10
150.612402
20
189.318766
70
0
0
VERTEX
8
Layer 1
10
150.237407
20
188.762613
70
0
0
VERTEX
8
Layer 1
10
149.681254
20
188.387618
70
0
0
VERTEX
8
Layer 1
10
149.000210
20
188.250050
70
0
0
VERTEX
8
Layer 1
10
148.330483
20
188.383157
70
0
0
VERTEX
8
Layer 1
10
147.762677
20
188.762429
70
0
0
VERTEX
8
Layer 1
10
147.383236
20
189.330123
70
0
0
VERTEX
8
Layer 1
10
147.249930
20
189.999810
70
0
0
VERTEX
8
Layer 1
10
147.383087
20
190.669657
70
0
0
VERTEX
8
Layer 1
10
147.762493
20
191.237527
70
0
0
VERTEX
8
Layer 1
10
148.330363
20
191.616933
70
0
0
VERTEX
8
Layer 1
10
149.000210
20
191.750090
70
0
0
VERTEX
8
Layer 1
10
149.000210
20
191.750090
70
0
0
SEQEND
8
Layer 1
0
POLYLINE
8
Layer 1
62
7
70
0
10
0.000000
20
0.000000
66
1
0
VERTEX
8
Layer 1
10
65.000167
20
177.723560
70
0
0
VERTEX
8
Layer 1
10
65.973049
20
177.527021
70
0
0
VERTEX
8
Layer 1
10
66.767523
20
176.991327
70
0
0
VERTEX
8
Layer 1
10
67.303217
20
176.196852
70
0
0
VERTEX
8
Layer 1
10
67.499756
20
175.223970
70
0
0
VERTEX
8
Layer 1
10
67.303367
20
174.250921
70
0
0
VERTEX
8
Layer 1
10
66.767707
20
173.456277
70
0
0
VERTEX
8
Layer 1
10
65.973175
20
172.920452
70
0
0
VERTEX
8
Layer 1
10
65.000167
20
172.723860
70
0
0
VERTEX
8
Layer 1
10
64.043400
20
172.914141
70
0
0
VERTEX
8
Layer 1
10
63.232293
20
173.456094
70
0
0
VERTEX
8
Layer 1
10
62.690341
20
174.267203
70
0
0
VERTEX
8
Layer 1
10
62.500061
20
175.223970
70
0
0
VERTEX
8
Layer 1
10
62.696652
20
176.196977
70
0
0
VERTEX
8
Layer 1
10
63.232476
20
176.991509
70
0
0
VERTEX
8
Layer 1
10
64.027120
20
177.527170
70
0
0
VERTEX
8
Layer 1
10
65.000167
20
177.723560
70
0
0
VERTEX
8
Layer 1
10
65.000167
20
177.723560
70
0
0
SEQEND
8
Layer 1
0
POLYLINE
8
Layer 1
62
7
70
0
10
0.000000
20
0.000000
66
1
0
VERTEX
8
Layer 1
10
115.000220
20
177.723560
70
0
0
VERTEX
8
Layer 1
10
115.973099
20
177.527018
70
0
0
VERTEX
8
Layer 1
10
116.767571
20
176.991323
70
0
0
VERTEX
8
Layer 1
10
117.303262
20
176.196849
70
0
0
VERTEX
8
Layer 1
10
117.499800
20
175.223970
70
0
0
VERTEX
8
Layer 1
10
117.303412
20
174.250924
70
0
0
VERTEX
8
Layer 1
10
116.767754
20
173.456280
70
0
0
VERTEX
8
Layer 1
10
115.973225
20
172.920454
70
0
0
VERTEX
8
Layer 1
10
115.000220
20
172.723860
70
0
0
VERTEX
8
Layer 1
10
114.043452
20
172.914140
70
0
0
VERTEX
8
Layer 1
10
113.232343
20
173.456093
70
0
0
VERTEX
8
Layer 1
10
112.690390
20
174.267202
70
0
0
VERTEX
8
Layer 1
10
112.500110
20
175.223970
70
0
0
VERTEX
8
Layer 1
10
112.696702
20
176.196978
70
0
0
VERTEX
8
Layer 1
10
113.232527
20
176.991511
70
0
0
VERTEX
8
Layer 1
10
114.027171
20
177.527171
70
0
0
VERTEX
8
Layer 1
10
115.000220
20
177.723560
70
0
0
VERTEX
8
Layer 1
10
115.000220
20
177.723560
70
0
0
SEQEND
8
Layer 1
0
POLYLINE
8
Layer 1
62
7
70
0
10
0.000000
20
0.000000
66
1
0
VERTEX
8
Layer 1
10
31.000175
20
175.750040
70
0
0
VERTEX
8
Layer 1
10
31.669863
20
175.616735
70
0
0
VERTEX
8
Layer 1
10
32.237558
20
175.237294
70
0
0
VERTEX
8
Layer 1
10
32.616831
20
174.669487
70
0
0
VERTEX
8
Layer 1
10
32.749939
20
173.999760
70
0
0
VERTEX
8
Layer 1
10
32.612373
20
173.318712
70
0
0
VERTEX
8
Layer 1
10
32.237378
20
172.762555
70
0
0
VERTEX
8
Layer 1
10
31.681222
20
172.387558
70
0
0
VERTEX
8
Layer 1
10
31.000175
20
172.249990
70
0
0
VERTEX
8
Layer 1
10
30.330446
20
172.383098
70
0
0
VERTEX
8
Layer 1
10
29.762638
20
172.762372
70
0
0
VERTEX
8
Layer 1
10
29.383198
20
173.330070
70
0
0
VERTEX
8
Layer 1
10
29.249894
20
173.999760
70
0
0
VERTEX
8
Layer 1
10
29.383051
20
174.669607
70
0
0
VERTEX
8
Layer 1
10
29.762457
20
175.237477
70
0
0
VERTEX
8
Layer 1
10
30.330328
20
175.616883
70
0
0
VERTEX
8
Layer 1
10
31.000175
20
175.750040
70
0
0
VERTEX
8
Layer 1
10
31.000175
20
175.750040
70
0
0
SEQEND
8
Layer 1
0
POLYLINE
8
Layer 1
62
7
70
0
10
0.000000
20
0.000000
66
1
0
VERTEX
8
Layer 1
10
47.000232
20
175.750040
70
0
0
VERTEX
8
Layer 1
10
47.669920
20
175.616735
70
0
0
VERTEX
8
Layer 1
10
48.237615
20
175.237294
70
0
0
VERTEX
8
Layer 1
10
48.616888
20
174.669487
70
0
0
VERTEX
8
Layer 1
10
48.749996
20
173.999760
70
0
0
VERTEX
8
Layer 1
10
48.612430
20
173.318712
70
0
0
VERTEX
8
Layer 1
10
48.237435
20
172.762555
70
0
0
VERTEX
8
Layer 1
10
47.681279
20
172.387558
70
0
0
VERTEX
8
Layer 1
10
47.000232
20
172.249990
70
0
0
VERTEX
8
Layer 1
10
46.330503
20
172.383098
70
0
0
VERTEX
8
Layer 1
10
45.762695
20
172.762372
70
0
0
VERTEX
8
Layer 1
10
45.383255
20
173.330070
70
0
0
VERTEX
8
Layer 1
10
45.249951
20
173.999760
70
0
0
VERTEX
8
Layer 1
10
45.383108
20
174.669607
70
0
0
VERTEX
8
Layer 1
10
45.762514
20
175.237477
70
0
0
VERTEX
8
Layer 1
10
46.330385
20
175.616883
70
0
0
VERTEX
8
Layer 1
10
47.000232
20
175.750040
70
0
0
VERTEX
8
Layer 1
10
47.000232
20
175.750040
70
0
0
SEQEND
8
Layer 1
0
POLYLINE
8
Layer 1
62
7
70
0
10
0.000000
20
0.000000
66
1
0
VERTEX
8
Layer 1
10
133.000150
20
175.750040
70
0
0
VERTEX
8
Layer 1
10
133.669837
20
175.616734
70
0
0
VERTEX
8
Layer 1
10
134.237531
20
175.237293
70
0
0
VERTEX
8
Layer 1
10
134.616803
20
174.669487
70
0
0
VERTEX
8
Layer 1
10
134.749910
20
173.999760
70
0
0
VERTEX
8
Layer 1
10
134.612344
20
173.318713
70
0
0
VERTEX
8
Layer 1
10
134.237350
20
172.762557
70
0
0
VERTEX
8
Layer 1
10
133.681196
20
172.387559
70
0
0
VERTEX
8
Layer 1
10
133.000150
20
172.249990
70
0
0
VERTEX
8
Layer 1
10
132.330421
20
172.383098
70
0
0
VERTEX
8
Layer 1
10
131.762613
20
172.762373
70
0
0
VERTEX
8
Layer 1
10
131.383174
20
173.330070
70
0
0
VERTEX
8
Layer 1
10
131.249870
20
173.999760
70
0
0
VERTEX
8
Layer 1
10
131.383027
20
174.669607
70
0
0
VERTEX
8
Layer 1
10
131.762433
20
175.237477
70
0
0
VERTEX
8
Layer 1
10
132.330303
20
175.616883
70
0
0
VERTEX
8
Layer 1
10
133.000150
20
175.750040
70
0
0
VERTEX
8
Layer 1
10
133.000150
20
175.750040
70
0
0
SEQEND
8
Layer 1
0
POLYLINE
8
Layer 1
62
7
70
0
10
0.000000
20
0.000000
66
1
0
VERTEX
8
Layer 1
10
149.000210
20
175.750040
70
0
0
VERTEX
8
Layer 1
10
149.669897
20
175.616734
70
0
0
VERTEX
8
Layer 1
10
150.237591
20
175.237293
70
0
0
VERTEX
8
Layer 1
10
150.616863
20
174.669487
70
0
0
VERTEX
8
Layer 1
10
150.749970
20
173.999760
70
0
0
VERTEX
8
Layer 1
10
150.612404
20
173.318713
70
0
0
VERTEX
8
Layer 1
10
150.237410
20
172.762557
70
0
0
VERTEX
8
Layer 1
10
149.681256
20
172.387559
70
0
0
VERTEX
8
Layer 1
10
149.000210
20
172.249990
70
0
0
VERTEX
8
Layer 1
10
148.330481
20
172.383098
70
0
0
VERTEX
8
Layer 1
10
147.762673
20
172.762373
70
0
0
VERTEX
8
Layer 1
10
147.383234
20
173.330070
70
0
0
VERTEX
8
Layer 1
10
147.249930
20
173.999760
70
0
0
VERTEX
8
Layer 1
10
147.383087
20
174.669607
70
0
0
VERTEX
8
Layer 1
10
147.762493
20
175.237477
70
0
0
VERTEX
8
Layer 1
10
148.330363
20
175.616883
70
0
0
VERTEX
8
Layer 1
10
149.000210
20
175.750040
70
0
0
VERTEX
8
Layer 1
10
149.000210
20
175.750040
70
0
0
SEQEND
8
Layer 1
0
POLYLINE
8
Layer 1
62
7
70
0
10
0.000000
20
0.000000
66
1
0
VERTEX
8
Layer 1
10
71.750142
20
162.999910
70
0
0
VERTEX
8
Layer 1
10
72.431187
20
162.862343
70
0
0
VERTEX
8
Layer 1
10
72.987341
20
162.487348
70
0
0
VERTEX
8
Layer 1
10
73.362337
20
161.931195
70
0
0
VERTEX
8
Layer 1
10
73.499906
20
161.250150
70
0
0
VERTEX
8
Layer 1
10
73.366798
20
160.580423
70
0
0
VERTEX
8
Layer 1
10
72.987525
20
160.012616
70
0
0
VERTEX
8
Layer 1
10
72.419830
20
159.633175
70
0
0
VERTEX
8
Layer 1
10
71.750142
20
159.499870
70
0
0
VERTEX
8
Layer 1
10
71.080295
20
159.633027
70
0
0
VERTEX
8
Layer 1
10
70.512425
20
160.012433
70
0
0
VERTEX
8
Layer 1
10
70.133019
20
160.580303
70
0
0
VERTEX
8
Layer 1
10
69.999862
20
161.250150
70
0
0
VERTEX
8
Layer 1
10
70.133168
20
161.919837
70
0
0
VERTEX
8
Layer 1
10
70.512609
20
162.487531
70
0
0
VERTEX
8
Layer 1
10
71.080415
20
162.866803
70
0
0
VERTEX
8
Layer 1
10
71.750142
20
162.999910
70
0
0
VERTEX
8
Layer 1
10
71.750142
20
162.999910
70
0
0
SEQEND
8
Layer 1
0
POLYLINE
8
Layer 1
62
7
70
0
10
0.000000
20
0.000000
66
1
0
VERTEX
8
Layer 1
10
108.749950
20
162.999910
70
0
0
VERTEX
8
Layer 1
10
109.419677
20
162.866803
70
0
0
VERTEX
8
Layer 1
10
109.987483
20
162.487531
70
0
0
VERTEX
8
Layer 1
10
110.366924
20
161.919837
70
0
0
VERTEX
8
Layer 1
10
110.500230
20
161.250150
70
0
0
VERTEX
8
Layer 1
10
110.367073
20
160.580303
70
0
0
VERTEX
8
Layer 1
10
109.987667
20
160.012433
70
0
0
VERTEX
8
Layer 1
10
109.419797
20
159.633027
70
0
0
VERTEX
8
Layer 1
10
108.749950
20
159.499870
70
0
0
VERTEX
8
Layer 1
10
108.080263
20
159.633176
70
0
0
VERTEX
8
Layer 1
10
107.512569
20
160.012617
70
0
0
VERTEX
8
Layer 1
10
107.133297
20
160.580423
70
0
0
VERTEX
8
Layer 1
10
107.000190
20
161.250150
70
0
0
VERTEX
8
Layer 1
10
107.137758
20
161.931194
70
0
0
VERTEX
8
Layer 1
10
107.512753
20
162.487347
70
0
0
VERTEX
8
Layer 1
10
108.068906
20
162.862342
70
0
0
VERTEX
8
Layer 1
10
108.749950
20
162.999910
70
0
0
VERTEX
8
Layer 1
10
108.749950
20
162.999910
70
0
0
SEQEND
8
Layer 1
0
POLYLINE
8
Layer 1
62
7
70
0
10
0.000000
20
0.000000
66
1
0
VERTEX
8
Layer 1
10
11.750187
20
136.999950
70
0
0
VERTEX
8
Layer 1
10
12.431234
20
136.862382
70
0
0
VERTEX
8
Layer 1
10
12.987390
20
136.487385
70
0
0
VERTEX
8
Layer 1
10
13.362385
20
135.931228
70
0
0
VERTEX
8
Layer 1
10
13.499951
20
135.250180
70
0
0
VERTEX
8
Layer 1
10
13.366843
20
134.580453
70
0
0
VERTEX
8
Layer 1
10
12.987570
20
134.012646
70
0
0
VERTEX
8
Layer 1
10
12.419875
20
133.633205
70
0
0
VERTEX
8
Layer 1
10
11.750187
20
133.499900
70
0
0
VERTEX
8
Layer 1
10
11.080340
20
133.633057
70
0
0
VERTEX
8
Layer 1
10
10.512470
20
134.012463
70
0
0
VERTEX
8
Layer 1
10
10.133064
20
134.580333
70
0
0
VERTEX
8
Layer 1
10
9.999906
20
135.250180
70
0
0
VERTEX
8
Layer 1
10
10.133210
20
135.919870
70
0
0
VERTEX
8
Layer 1
10
10.512650
20
136.487567
70
0
0
VERTEX
8
Layer 1
10
11.080458
20
136.866842
70
0
0
VERTEX
8
Layer 1
10
11.750187
20
136.999950
70
0
0
VERTEX
8
Layer 1
10
11.750187
20
136.999950
70
0
0
SEQEND
8
Layer 1
0
POLYLINE
8
Layer 1
62
7
70
0
10
0.000000
20
0.000000
66
1
0
VERTEX
8
Layer 1
10
168.250200
20
136.999950
70
0
0
VERTEX
8
Layer 1
10
168.931246
20
136.862381
70
0
0
VERTEX
8
Layer 1
10
169.487400
20
136.487383
70
0
0
VERTEX
8
Layer 1
10
169.862394
20
135.931227
70
0
0
VERTEX
8
Layer 1
10
169.999960
20
135.250180
70
0
0
VERTEX
8
Layer 1
10
169.866853
20
134.580453
70
0
0
VERTEX
8
Layer 1
10
169.487581
20
134.012647
70
0
0
VERTEX
8
Layer 1
10
168.919887
20
133.633206
70
0
0
VERTEX
8
Layer 1
10
168.250200
20
133.499900
70
0
0
VERTEX
8
Layer 1
10
167.580350
20
133.633054
70
0
0
VERTEX
8
Layer 1
10
167.012477
20
134.012460
70
0
0
VERTEX
8
Layer 1
10
166.633068
20
134.580331
70
0
0
VERTEX
8
Layer 1
10
166.499910
20
135.250180
70
0
0
VERTEX
8
Layer 1
10
166.633215
20
135.919872
70
0
0
VERTEX
8
Layer 1
10
167.012657
20
136.487571
70
0
0
VERTEX
8
Layer 1
10
167.580468
20
136.866844
70
0
0
VERTEX
8
Layer 1
10
168.250200
20
136.999950
70
0
0
VERTEX
8
Layer 1
10
168.250200
20
136.999950
70
0
0
SEQEND
8
Layer 1
0
POLYLINE
8
Layer 1
62
7
70
0
10
0.000000
20
0.000000
66
1
0
VERTEX
8
Layer 1
10
11.750187
20
127.000040
70
0
0
VERTEX
8
Layer 1
10
12.419875
20
126.866735
70
0
0
VERTEX
8
Layer 1
10
12.987570
20
126.487294
70
0
0
VERTEX
8
Layer 1
10
13.366843
20
125.919487
70
0
0
VERTEX
8
Layer 1
10
13.499951
20
125.249760
70
0
0
VERTEX
8
Layer 1
10
13.362382
20
124.568715
70
0
0
VERTEX
8
Layer 1
10
12.987386
20
124.012562
70
0
0
VERTEX
8
Layer 1
10
12.431232
20
123.637567
70
0
0
VERTEX
8
Layer 1
10
11.750187
20
123.500000
70
0
0
VERTEX
8
Layer 1
10
11.080460
20
123.633107
70
0
0
VERTEX
8
Layer 1
10
10.512654
20
124.012379
70
0
0
VERTEX
8
Layer 1
10
10.133213
20
124.580073
70
0
0
VERTEX
8
Layer 1
10
9.999906
20
125.249760
70
0
0
VERTEX
8
Layer 1
10
10.133064
20
125.919607
70
0
0
VERTEX
8
Layer 1
10
10.512470
20
126.487477
70
0
0
VERTEX
8
Layer 1
10
11.080340
20
126.866883
70
0
0
VERTEX
8
Layer 1
10
11.750187
20
127.000040
70
0
0
VERTEX
8
Layer 1
10
11.750187
20
127.000040
70
0
0
SEQEND
8
Layer 1
0
POLYLINE
8
Layer 1
62
7
70
0
10
0.000000
20
0.000000
66
1
0
VERTEX
8
Layer 1
10
168.250200
20
127.000040
70
0
0
VERTEX
8
Layer 1
10
168.919887
20
126.866734
70
0
0
VERTEX
8
Layer 1
10
169.487581
20
126.487293
70
0
0
VERTEX
8
Layer 1
10
169.866853
20
125.919487
70
0
0
VERTEX
8
Layer 1
10
169.999960
20
125.249760
70
0
0
VERTEX
8
Layer 1
10
169.862392
20
124.568716
70
0
0
VERTEX
8
Layer 1
10
169.487397
20
124.012563
70
0
0
VERTEX
8
Layer 1
10
168.931244
20
123.637568
70
0
0
VERTEX
8
Layer 1
10
168.250200
20
123.500000
70
0
0
VERTEX
8
Layer 1
10
167.580470
20
123.633105
70
0
0
VERTEX
8
Layer 1
10
167.012661
20
124.012376
70
0
0
VERTEX
8
Layer 1
10
166.633217
20
124.580071
70
0
0
VERTEX
8
Layer 1
10
166.499910
20
125.249760
70
0
0
VERTEX
8
Layer 1
10
166.633068
20
125.919609
70
0
0
VERTEX
8
Layer 1
10
167.012477
20
126.487480
70
0
0
VERTEX
8
Layer 1
10
167.580350
20
126.866886
70
0
0
VERTEX
8
Layer 1
10
168.250200
20
127.000040
70
0
0
VERTEX
8
Layer 1
10
168.250200
20
127.000040
70
0
0
SEQEND
8
Layer 1
0
POLYLINE
8
Layer 1
62
7
70
0
10
0.000000
20
0.000000
66
1
0
VERTEX
8
Layer 1
10
71.750142
20
126.000100
70
0
0
VERTEX
8
Layer 1
10
72.419830
20
125.866795
70
0
0
VERTEX
8
Layer 1
10
72.987525
20
125.487354
70
0
0
VERTEX
8
Layer 1
10
73.366798
20
124.919547
70
0
0
VERTEX
8
Layer 1
10
73.499906
20
124.249820
70
0
0
VERTEX
8
Layer 1
10
73.362337
20
123.568775
70
0
0
VERTEX
8
Layer 1
10
72.987341
20
123.012622
70
0
0
VERTEX
8
Layer 1
10
72.431187
20
122.637627
70
0
0
VERTEX
8
Layer 1
10
71.750142
20
122.500060
70
0
0
VERTEX
8
Layer 1
10
71.080415
20
122.633167
70
0
0
VERTEX
8
Layer 1
10
70.512609
20
123.012439
70
0
0
VERTEX
8
Layer 1
10
70.133168
20
123.580133
70
0
0
VERTEX
8
Layer 1
10
69.999862
20
124.249820
70
0
0
VERTEX
8
Layer 1
10
70.133019
20
124.919667
70
0
0
VERTEX
8
Layer 1
10
70.512425
20
125.487537
70
0
0
VERTEX
8
Layer 1
10
71.080295
20
125.866943
70
0
0
VERTEX
8
Layer 1
10
71.750142
20
126.000100
70
0
0
VERTEX
8
Layer 1
10
71.750142
20
126.000100
70
0
0
SEQEND
8
Layer 1
0
POLYLINE
8
Layer 1
62
7
70
0
10
0.000000
20
0.000000
66
1
0
VERTEX
8
Layer 1
10
108.749950
20
126.000100
70
0
0
VERTEX
8
Layer 1
10
109.419797
20
125.866943
70
0
0
VERTEX
8
Layer 1
10
109.987667
20
125.487537
70
0
0
VERTEX
8
Layer 1
10
110.367073
20
124.919667
70
0
0
VERTEX
8
Layer 1
10
110.500230
20
124.249820
70
0
0
VERTEX
8
Layer 1
10
110.366924
20
123.580133
70
0
0
VERTEX
8
Layer 1
10
109.987483
20
123.012439
70
0
0
VERTEX
8
Layer 1
10
109.419677
20
122.633167
70
0
0
VERTEX
8
Layer 1
10
108.749950
20
122.500060
70
0
0
VERTEX
8
Layer 1
10
108.068906
20
122.637628
70
0
0
VERTEX
8
Layer 1
10
107.512753
20
123.012623
70
0
0
VERTEX
8
Layer 1
10
107.137758
20
123.568776
70
0
0
VERTEX
8
Layer 1
10
107.000190
20
124.249820
70
0
0
VERTEX
8
Layer 1
10
107.133297
20
124.919547
70
0
0
VERTEX
8
Layer 1
10
107.512569
20
125.487353
70
0
0
VERTEX
8
Layer 1
10
108.080263
20
125.866794
70
0
0
VERTEX
8
Layer 1
10
108.749950
20
126.000100
70
0
0
VERTEX
8
Layer 1
10
108.749950
20
126.000100
70
0
0
SEQEND
8
Layer 1
 0 
ENDSEC
 0 
EOF